<svg width="26" height="26" viewBox="0 0 26 26" fill="none" xmlns="http://www.w3.org/2000/svg">
<path d="M16.25 18.4167V19.5C16.25 21.2949 14.7949 22.75 13 22.75C11.2051 22.75 9.74998 21.2949 9.74998 19.5V18.4167M16.25 18.4167H9.74998M16.25 18.4167H20.1397C20.5541 18.4167 20.7623 18.4167 20.9301 18.3601C21.2506 18.252 21.5014 18.0003 21.6095 17.6798C21.6663 17.5113 21.6663 17.3025 21.6663 16.8848C21.6663 16.702 21.6661 16.6106 21.6518 16.5235C21.6248 16.3588 21.5609 16.2027 21.4636 16.0672C21.4122 15.9955 21.3468 15.9302 21.2179 15.8013L20.796 15.3793C20.6598 15.2432 20.5833 15.0585 20.5833 14.8659V10.8333C20.5833 6.64517 17.1881 3.24999 13 3.25C8.81183 3.25001 5.41665 6.64518 5.41665 10.8333V14.866C5.41665 15.0585 5.33999 15.2432 5.20384 15.3793L4.78188 15.8013C4.65263 15.9305 4.58794 15.9955 4.53644 16.0672C4.43911 16.2027 4.37464 16.3588 4.34761 16.5235C4.33331 16.6106 4.33331 16.702 4.33331 16.8848C4.33331 17.3025 4.33331 17.5113 4.39014 17.6797C4.49825 18.0002 4.75018 18.252 5.0707 18.3601C5.2385 18.4167 5.44591 18.4167 5.86033 18.4167H9.74998" stroke="#6D7578" stroke-width="2" stroke-linecap="round" stroke-linejoin="round"/>
</svg>
