<svg width="26" height="26" viewBox="0 0 26 26" fill="none" xmlns="http://www.w3.org/2000/svg">
<path d="M4.33337 8.66666H21.6667M4.33337 8.66666V18.2002C4.33337 19.4136 4.33337 20.0201 4.56953 20.4835C4.77725 20.8912 5.10847 21.223 5.51615 21.4307C5.97918 21.6667 6.58562 21.6667 7.79669 21.6667H18.2034C19.4145 21.6667 20.02 21.6667 20.4831 21.4307C20.8907 21.223 21.2231 20.8912 21.4308 20.4835C21.6667 20.0205 21.6667 19.4149 21.6667 18.2039V8.66666M4.33337 8.66666V7.8002C4.33337 6.58675 4.33337 5.97958 4.56953 5.5161C4.77725 5.10842 5.10847 4.7772 5.51615 4.56948C5.97963 4.33332 6.58681 4.33332 7.80025 4.33332H8.66671M21.6667 8.66666V7.79664C21.6667 6.58557 21.6667 5.97913 21.4308 5.5161C21.2231 5.10842 20.8907 4.7772 20.4831 4.56948C20.0196 4.33332 19.4137 4.33332 18.2003 4.33332H17.3334M17.3334 2.16666V4.33332M17.3334 4.33332H8.66671M8.66671 2.16666V4.33332" stroke="currentColor" stroke-width="2" stroke-linecap="round" stroke-linejoin="round"/>
</svg>
