<svg width="26" height="26" viewBox="0 0 26 26" fill="none" xmlns="http://www.w3.org/2000/svg">
<path d="M4.33325 8.66666H21.6666M4.33325 8.66666V18.2002C4.33325 19.4136 4.33325 20.0201 4.5694 20.4835C4.77713 20.8912 5.10835 21.223 5.51603 21.4307C5.97905 21.6667 6.5855 21.6667 7.79657 21.6667H18.2033C19.4143 21.6667 20.0199 21.6667 20.4829 21.4307C20.8906 21.223 21.2229 20.8912 21.4307 20.4835C21.6666 20.0205 21.6666 19.4149 21.6666 18.2039V8.66666M4.33325 8.66666V7.8002C4.33325 6.58675 4.33325 5.97958 4.5694 5.5161C4.77713 5.10842 5.10835 4.7772 5.51603 4.56948C5.97951 4.33332 6.58668 4.33332 7.80013 4.33332H8.66659M21.6666 8.66666V7.79664C21.6666 6.58557 21.6666 5.97913 21.4307 5.5161C21.2229 5.10842 20.8906 4.7772 20.4829 4.56948C20.0195 4.33332 19.4136 4.33332 18.2001 4.33332H17.3333M17.3333 2.16666V4.33332M17.3333 4.33332H8.66659M8.66659 2.16666V4.33332" stroke="#808291" stroke-width="2" stroke-linecap="round" stroke-linejoin="round"/>
</svg>
