<svg width="26" height="26" viewBox="0 0 26 26" fill="none" xmlns="http://www.w3.org/2000/svg">
<path d="M8.66683 4.33334H7.80037C6.58693 4.33334 5.97975 4.33334 5.51628 4.5695C5.10859 4.77722 4.77737 5.10844 4.56965 5.51612C4.3335 5.9796 4.3335 6.58677 4.3335 7.80022V18.2002C4.3335 19.4137 4.3335 20.0201 4.56965 20.4836C4.77737 20.8912 5.10859 21.223 5.51628 21.4308C5.9793 21.6667 6.58574 21.6667 7.79682 21.6667H8.66683M8.66683 4.33334H18.2004C19.4138 4.33334 20.0197 4.33334 20.4832 4.5695C20.8909 4.77722 21.2232 5.10844 21.4309 5.51612C21.6668 5.97915 21.6668 6.58559 21.6668 7.79666V18.2039C21.6668 19.415 21.6668 20.0205 21.4309 20.4836C21.2232 20.8912 20.8909 21.223 20.4832 21.4308C20.0202 21.6667 19.4146 21.6667 18.2035 21.6667H8.66683M8.66683 4.33334V21.6667M13.0002 11.9167H17.3335M13.0002 8.66668H17.3335" stroke="currentColor" stroke-width="2" stroke-linecap="round" stroke-linejoin="round"/>
</svg>
