<svg width="26" height="26" viewBox="0 0 26 26" fill="none" xmlns="http://www.w3.org/2000/svg">
<path d="M8.66659 4.33334H7.80013C6.58668 4.33334 5.97951 4.33334 5.51603 4.5695C5.10835 4.77722 4.77713 5.10844 4.5694 5.51612C4.33325 5.9796 4.33325 6.58677 4.33325 7.80022V18.2002C4.33325 19.4137 4.33325 20.0201 4.5694 20.4836C4.77713 20.8912 5.10835 21.223 5.51603 21.4308C5.97905 21.6667 6.5855 21.6667 7.79657 21.6667H8.66659M8.66659 4.33334H18.2001C19.4136 4.33334 20.0195 4.33334 20.4829 4.5695C20.8906 4.77722 21.2229 5.10844 21.4307 5.51612C21.6666 5.97915 21.6666 6.58559 21.6666 7.79666V18.2039C21.6666 19.415 21.6666 20.0205 21.4307 20.4836C21.2229 20.8912 20.8906 21.223 20.4829 21.4308C20.0199 21.6667 19.4143 21.6667 18.2033 21.6667H8.66659M8.66659 4.33334V21.6667M12.9999 11.9167H17.3333M12.9999 8.66668H17.3333" stroke="currentColor" stroke-width="2" stroke-linecap="round" stroke-linejoin="round"/>
</svg>
