<svg width="36" height="36" viewBox="0 0 36 36" fill="none" xmlns="http://www.w3.org/2000/svg">
<path d="M3.50244 15.5052C3.03257 15.0706 3.2878 14.2851 3.92335 14.2097L12.9287 13.1416C13.1877 13.1109 13.4127 12.9482 13.522 12.7114L17.3203 4.47669C17.5884 3.89554 18.4146 3.89543 18.6826 4.47658L22.481 12.7112C22.5902 12.9481 22.8137 13.1112 23.0728 13.1419L32.0786 14.2097C32.7142 14.2851 32.9687 15.0709 32.4988 15.5054L25.8416 21.6629C25.6501 21.84 25.5649 22.1036 25.6157 22.3594L27.3825 31.2539C27.5072 31.8816 26.8392 32.368 26.2807 32.0554L18.3677 27.6249C18.1401 27.4975 17.8636 27.4981 17.636 27.6255L9.72216 32.0543C9.1637 32.3669 8.49441 31.8816 8.61914 31.2539L10.3862 22.3599C10.437 22.1041 10.352 21.8399 10.1605 21.6628L3.50244 15.5052Z" stroke="#1D62ED" stroke-width="2" stroke-linecap="round" stroke-linejoin="round"/>
</svg>
