<svg width="26" height="26" viewBox="0 0 26 26" fill="none" xmlns="http://www.w3.org/2000/svg">
<path d="M2.52954 11.1982C2.19019 10.8843 2.37452 10.317 2.83353 10.2626L9.3374 9.49116C9.52447 9.46897 9.68697 9.3515 9.76587 9.18044L12.5091 3.23317C12.7027 2.81344 13.2994 2.81336 13.493 3.23309L16.2362 9.18031C16.3152 9.35137 16.4766 9.46917 16.6637 9.49135L23.1679 10.2626C23.6269 10.317 23.8107 10.8845 23.4714 11.1983L18.6634 15.6454C18.5251 15.7733 18.4635 15.9637 18.5002 16.1485L19.7763 22.5723C19.8663 23.0256 19.3839 23.3769 18.9805 23.1511L13.2656 19.9513C13.1012 19.8593 12.9015 19.8597 12.7371 19.9518L7.02156 23.1503C6.61823 23.3761 6.13485 23.0256 6.22494 22.5723L7.50116 16.1489C7.53787 15.9641 7.47645 15.7733 7.33814 15.6454L2.52954 11.1982Z" stroke="currentColor" stroke-width="2" stroke-linecap="round" stroke-linejoin="round"/>
</svg>
