<svg width="26" height="26" viewBox="0 0 26 26" fill="none" xmlns="http://www.w3.org/2000/svg">
<path d="M18.4166 22.75V20.5833C18.4166 19.4341 17.96 18.3319 17.1474 17.5192C16.3347 16.7065 15.2325 16.25 14.0833 16.25H5.41659C4.26731 16.25 3.16511 16.7065 2.35246 17.5192C1.5398 18.3319 1.08325 19.4341 1.08325 20.5833V22.75" stroke="currentColor" stroke-width="2" stroke-linecap="round" stroke-linejoin="round"/>
<path d="M9.75008 11.9167C12.1433 11.9167 14.0834 9.97657 14.0834 7.58333C14.0834 5.1901 12.1433 3.25 9.75008 3.25C7.35685 3.25 5.41675 5.1901 5.41675 7.58333C5.41675 9.97657 7.35685 11.9167 9.75008 11.9167Z" stroke="currentColor" stroke-width="2" stroke-linecap="round" stroke-linejoin="round"/>
<path d="M24.9167 22.75V20.5833C24.916 19.6232 24.5965 18.6905 24.0082 17.9316C23.42 17.1728 22.5964 16.6308 21.6667 16.3908" stroke="currentColor" stroke-width="2" stroke-linecap="round" stroke-linejoin="round"/>
<path d="M17.3333 3.39081C18.2654 3.62947 19.0915 4.17157 19.6815 4.93164C20.2715 5.69172 20.5917 6.62654 20.5917 7.58872C20.5917 8.55091 20.2715 9.48573 19.6815 10.2458C19.0915 11.0059 18.2654 11.548 17.3333 11.7866" stroke="currentColor" stroke-width="2" stroke-linecap="round" stroke-linejoin="round"/>
</svg>
